<svg version="1.1" id="Capa_1" xmlns="http://www.w3.org/2000/svg" xmlns:xlink="http://www.w3.org/1999/xlink" x="0px" y="0px"
	 viewBox="0 0 246.5 246.5" style="enable-background:new 0 0 246.5 246.5;" xml:space="preserve">
<g>
	<path d="M204.667,220.542c0-4.142-3.358-7.5-7.5-7.5h-148c-4.142,0-7.5,3.358-7.5,7.5v16c0,4.142,3.358,7.5,7.5,7.5h148
		c4.142,0,7.5-3.358,7.5-7.5V220.542z"/>
	<path d="M228.776,47.052c-2.861-1.616-6.438-1.21-8.828,1.042l-51.802,48.72l-38.255-48.677c-1.423-1.805-3.594-3.094-5.892-3.094
		c-0.003,0-0.006,0-0.009,0c-2.302,0-4.475,1.297-5.894,3.109L79.839,97.195L28.051,48.438c-2.392-2.251-5.971-2.684-8.829-1.069
		c-2.86,1.615-4.336,4.904-3.643,8.114l28.883,133.643c0.746,3.452,3.8,5.916,7.331,5.916h144.414c3.533,0,6.587-2.473,7.331-5.926
		l28.883-133.937C233.113,51.969,231.637,48.666,228.776,47.052z"/>
	<path d="M108.529,17.179c0,8.117,6.604,14.721,14.721,14.721s14.721-6.604,14.721-14.721S131.367,2.458,123.25,2.458
		S108.529,9.062,108.529,17.179z"/>
	<path d="M29.441,24.181c0-8.117-6.604-14.721-14.721-14.721S0,16.063,0,24.181s6.604,14.721,14.721,14.721
		S29.441,32.298,29.441,24.181z"/>
	<path d="M231.779,9.46c-8.117,0-14.721,6.604-14.721,14.721s6.604,14.721,14.721,14.721S246.5,32.298,246.5,24.181
		S239.896,9.46,231.779,9.46z"/>
</g>
</svg>
